<?xml version="1.0" encoding="UTF-8" standalone="no"?>
<svg width="53px" height="18px" viewBox="0 0 53 18" version="1.1" xmlns="http://www.w3.org/2000/svg" xmlns:xlink="http://www.w3.org/1999/xlink" xmlns:sketch="http://www.bohemiancoding.com/sketch/ns">
    <!-- Generator: Sketch 3.3.2 (12043) - http://www.bohemiancoding.com/sketch -->
    <title>Shape + Shape Copy 2 + Shape Copy</title>
    <desc>Created with Sketch.</desc>
    <defs></defs>
    <g id="Page-1" stroke="none" stroke-width="1" fill="none" fill-rule="evenodd" sketch:type="MSPage">
        <g id="iPhone-5/5S/5C-Copy-2" sketch:type="MSArtboardGroup" transform="translate(-128.000000, -556.000000)" fill-opacity="0.586390399" fill="#000000">
            <g id="block_2_more" sketch:type="MSLayerGroup" transform="translate(-1.000000, 480.000000)">
                <g id="Group" transform="translate(12.000000, 24.000000)" sketch:type="MSShapeGroup">
                    <g id="Shape-+-Shape-Copy-2-+-Shape-Copy" transform="translate(115.500000, 48.500000)">
                        <path d="M23.0334664,4.28874117 C22.6591764,3.74291469 21.8941932,3.31157471 21.0680709,3.16241976 C21.1933313,2.56096251 20.9592137,1.91758063 20.4372953,1.59266472 C19.8005549,1.19357446 18.9826342,1.42980365 18.614309,2.12075386 C18.5412404,2.25700892 18.0618211,3.26965007 17.3453017,4.79264302 C16.1180479,4.50723301 14.9019781,4.24439781 13.8969124,4.15087362 C12.9410562,4.06138066 11.6481898,4.05412447 11.4543344,5.02161602 C11.1903929,6.33659828 12.9686433,7.96198408 15.0428961,9.69701892 C14.5821167,10.6814416 14.1012062,11.7094013 13.6135853,12.7510672 C12.0105503,11.9367618 10.702772,11.4409224 10.1241882,12.0891418 C9.31521469,12.9953589 10.0294973,14.3095349 10.8548739,15.8317216 C11.0904828,16.2654803 11.332802,16.7129451 11.5490253,17.1668599 C9.36815212,21.8301692 7.52801705,25.771891 7.52801705,25.771891 C7.52801705,25.771891 9.55231475,22.4300139 12.0262079,18.3407496 C12.4258482,19.5791388 12.4407602,20.8272029 11.4222737,21.965618 C11.3372756,22.0607546 11.3395124,22.2131346 11.4274929,22.3058525 C11.4416593,22.3195586 11.4558256,22.3316523 11.4714832,22.340521 C11.5579725,22.393733 11.6705578,22.3800269 11.7421351,22.2994026 C13.015616,20.8747713 12.8776804,19.3146911 12.3266837,17.8424915 C13.1058333,16.5541153 13.9215172,15.2052708 14.7282538,13.8693262 C14.7454026,13.8790011 14.7625513,13.8878698 14.7782089,13.8967385 C17.114912,15.1456088 19.3211356,16.3251423 19.9534024,15.0988467 C20.5782132,13.8902885 18.8402251,12.2640965 16.7540427,10.513743 C17.8560361,8.68840898 18.8506634,7.03802965 19.5940243,5.80286544 C21.4207386,6.20114946 22.5846166,6.33901701 22.9715818,5.87058985 C23.3712222,5.39248778 23.3928445,4.81602406 23.0334664,4.28874117 L23.0334664,4.28874117 Z M11.7935814,16.6411895 C11.6124011,16.2799927 11.4215281,15.926052 11.2381111,15.5890424 C10.504443,14.2361668 9.86919377,13.0679207 10.443304,12.4245388 C10.8220676,12.000455 12.0873469,12.5156443 13.4115283,13.181601 C12.8694788,14.3417846 12.3237013,15.5068057 11.7935814,16.6411895 L11.7935814,16.6411895 Z M19.5656916,14.8650363 C19.1392097,15.6914353 16.8308393,14.4570773 14.9757923,13.467011 C14.9750467,13.467011 14.9743011,13.4662047 14.9735555,13.4662047 C15.4962195,12.601106 16.0129187,11.7456823 16.5102323,10.921702 C18.3078683,12.4309888 20.011559,14.0023563 19.5656916,14.8650363 L19.5656916,14.8650363 Z M15.2471898,9.26164772 C13.4383699,7.74349224 11.6832329,6.14309997 11.8882723,5.12562136 C11.977744,4.68460646 12.6398347,4.51771417 13.8581414,4.63139442 C14.8065416,4.72088739 15.9629636,4.96679149 17.1357888,5.23849537 C16.599704,6.37852291 15.951034,7.76042334 15.2471898,9.26164772 L15.2471898,9.26164772 Z M18.7194382,5.11675268 C18.6500976,5.09982158 18.5822483,5.08450297 18.5158901,5.06837811 C18.3220347,4.69589386 19.0184229,2.8084791 19.1928928,2.4819507 C19.3763098,2.13687872 19.7856429,2.018361 20.1047587,2.21750301 C20.3955418,2.39810144 20.4991799,2.7746169 20.3813755,3.10114529 C19.9996294,3.1124327 19.6238482,3.18821953 19.2860925,3.3583368 C19.1742528,3.41396756 19.1250434,3.55667256 19.1772352,3.67760901 C19.2271903,3.79773921 19.3613978,3.85095124 19.4724919,3.79451424 C19.6603825,3.70018381 19.8676587,3.64858426 20.0786628,3.6155283 C19.7066096,4.14281119 19.0706147,4.94663542 18.7194382,5.11675268 L18.7194382,5.11675268 Z M22.6427732,5.55131764 C22.4026908,5.83995262 21.1940769,5.65532298 19.8542379,5.36991297 C20.4276025,4.4169338 20.8018926,3.78806429 20.901057,3.61149709 C21.6414355,3.72033988 22.3460253,4.09443662 22.6748339,4.57576366 C22.9111884,4.92083565 22.90075,5.23930161 22.6427732,5.55131764 L22.6427732,5.55131764 Z" id="Shape" transform="translate(15.408017, 13.585262) scale(-1, -1) rotate(62.000000) translate(-15.408017, -13.585262) "></path>
                        <path d="M48.3334695,4.28874117 C47.9591794,3.74291469 47.1941962,3.31157471 46.368074,3.16241976 C46.4933344,2.56096251 46.2592167,1.91758063 45.7372983,1.59266472 C45.1005579,1.19357446 44.2826373,1.42980365 43.914312,2.12075386 C43.8412434,2.25700892 43.3618241,3.26965007 42.6453048,4.79264302 C41.418051,4.50723301 40.2019812,4.24439781 39.1969155,4.15087362 C38.2410593,4.06138066 36.9481929,4.05412447 36.7543375,5.02161602 C36.4903959,6.33659828 38.2686464,7.96198408 40.3428991,9.69701892 C39.8821198,10.6814416 39.4012093,11.7094013 38.9135884,12.7510672 C37.3105534,11.9367618 36.002775,11.4409224 35.4241912,12.0891418 C34.6152177,12.9953589 35.3295003,14.3095349 36.154877,15.8317216 C36.3904858,16.2654803 36.6328051,16.7129451 36.8490284,17.1668599 C34.6681552,21.8301692 32.8280201,25.771891 32.8280201,25.771891 C32.8280201,25.771891 34.8523178,22.4300139 37.3262109,18.3407496 C37.7258513,19.5791388 37.7407632,20.8272029 36.7222768,21.965618 C36.6372787,22.0607546 36.6395154,22.2131346 36.727496,22.3058525 C36.7416623,22.3195586 36.7558287,22.3316523 36.7714862,22.340521 C36.8579756,22.393733 36.9705608,22.3800269 37.0421382,22.2994026 C38.315619,20.8747713 38.1776835,19.3146911 37.6266868,17.8424915 C38.4058363,16.5541153 39.2215202,15.2052708 40.0282569,13.8693262 C40.0454056,13.8790011 40.0625544,13.8878698 40.0782119,13.8967385 C42.4149151,15.1456088 44.6211386,16.3251423 45.2534054,15.0988467 C45.8782163,13.8902885 44.1402281,12.2640965 42.0540458,10.513743 C43.1560392,8.68840898 44.1506665,7.03802965 44.8940274,5.80286544 C46.7207417,6.20114946 47.8846197,6.33901701 48.2715849,5.87058985 C48.6712252,5.39248778 48.6928475,4.81602406 48.3334695,4.28874117 L48.3334695,4.28874117 Z M37.0935844,16.6411895 C36.9124042,16.2799927 36.7215312,15.926052 36.5381142,15.5890424 C35.804446,14.2361668 35.1691968,13.0679207 35.743307,12.4245388 C36.1220707,12.000455 37.3873499,12.5156443 38.7115314,13.181601 C38.1694819,14.3417846 37.6237044,15.5068057 37.0935844,16.6411895 L37.0935844,16.6411895 Z M44.8656947,14.8650363 C44.4392128,15.6914353 42.1308424,14.4570773 40.2757953,13.467011 C40.2750497,13.467011 40.2743041,13.4662047 40.2735585,13.4662047 C40.7962225,12.601106 41.3129217,11.7456823 41.8102354,10.921702 C43.6078714,12.4309888 45.3115621,14.0023563 44.8656947,14.8650363 L44.8656947,14.8650363 Z M40.5471929,9.26164772 C38.7383729,7.74349224 36.983236,6.14309997 37.1882753,5.12562136 C37.2777471,4.68460646 37.9398378,4.51771417 39.1581444,4.63139442 C40.1065447,4.72088739 41.2629667,4.96679149 42.4357918,5.23849537 C41.8997071,6.37852291 41.2510371,7.76042334 40.5471929,9.26164772 L40.5471929,9.26164772 Z M44.0194413,5.11675268 C43.9501007,5.09982158 43.8822513,5.08450297 43.8158931,5.06837811 C43.6220377,4.69589386 44.318426,2.8084791 44.4928958,2.4819507 C44.6763128,2.13687872 45.085646,2.018361 45.4047618,2.21750301 C45.6955449,2.39810144 45.7991829,2.7746169 45.6813785,3.10114529 C45.2996325,3.1124327 44.9238513,3.18821953 44.5860955,3.3583368 C44.4742559,3.41396756 44.4250464,3.55667256 44.4772383,3.67760901 C44.5271933,3.79773921 44.6614009,3.85095124 44.7724949,3.79451424 C44.9603856,3.70018381 45.1676617,3.64858426 45.3786659,3.6155283 C45.0066126,4.14281119 44.3706178,4.94663542 44.0194413,5.11675268 L44.0194413,5.11675268 Z M47.9427763,5.55131764 C47.7026938,5.83995262 46.49408,5.65532298 45.154241,5.36991297 C45.7276056,4.4169338 46.1018956,3.78806429 46.2010601,3.61149709 C46.9414386,3.72033988 47.6460284,4.09443662 47.974837,4.57576366 C48.2111914,4.92083565 48.2007531,5.23930161 47.9427763,5.55131764 L47.9427763,5.55131764 Z" id="Shape-Copy-2" transform="translate(40.708020, 13.585262) scale(-1, 1) rotate(-118.000000) translate(-40.708020, -13.585262) "></path>
                        <path d="M30.9481646,5.96852955 C31.0745326,5.96852955 31.1769678,5.86609437 31.1769678,5.73972638 C31.1769678,5.50634714 31.3668287,5.31646339 31.6002308,5.31646339 L31.7663877,5.31646339 C31.8927557,5.31646339 31.9951908,5.21402821 31.9951908,5.08766022 L31.9951908,4.22969408 C31.9951908,4.10332608 31.8927557,4.0008909 31.7663877,4.0008909 L24.5251104,4.0008909 C24.3987424,4.0008909 24.2963073,4.10332608 24.2963073,4.22969408 L24.2963073,5.08766022 C24.2963073,5.21402821 24.3987424,5.31646339 24.5251104,5.31646339 L24.6912673,5.31646339 C24.9246465,5.31646339 25.1145303,5.50632426 25.1145303,5.73972638 C25.1145303,5.86609437 25.2169655,5.96852955 25.3433335,5.96852955 L25.5146384,5.96852955 L25.5146384,9.0544666 C25.5146384,9.69861617 24.9905876,10.222667 24.3464152,10.222667 C23.8563416,10.222667 23.4576063,9.82395455 23.4576063,9.33385815 C23.4576063,8.96701802 23.7560572,8.66856716 24.1228973,8.66856716 C24.3911462,8.66856716 24.6093558,8.88679963 24.6093558,9.15502559 C24.6093558,9.28139358 24.7117909,9.38382876 24.8381589,9.38382876 C24.9645269,9.38382876 25.0669621,9.28139358 25.0669621,9.15502559 C25.0669621,8.63447549 24.6434474,8.21096082 24.1228973,8.21096082 C23.5037331,8.21096082 23,8.71469388 23,9.33385815 C23,10.0762787 23.6039946,10.6802733 24.3464152,10.6802733 C24.8045935,10.6802733 25.2188188,10.4894515 25.5146384,10.1834959 L25.5146384,12.0314704 L25.3433335,12.0314704 C25.2169655,12.0314704 25.1145303,12.1339056 25.1145303,12.2602736 C25.1145303,12.4936529 24.9246694,12.6835366 24.6912673,12.6835366 L24.5251104,12.6835366 C24.3987424,12.6835366 24.2963073,12.7859718 24.2963073,12.9123398 L24.2963073,13.7703059 C24.2963073,13.8966739 24.3987424,13.9991091 24.5251104,13.9991091 L31.7663877,13.9991091 C31.8927557,13.9991091 31.9951908,13.8966739 31.9951908,13.7703059 L31.9951908,12.9123398 C31.9951908,12.7859718 31.8927557,12.6835366 31.7663877,12.6835366 L31.6002308,12.6835366 C31.3668516,12.6835366 31.1769678,12.4936757 31.1769678,12.2602736 C31.1769678,12.1339056 31.0745326,12.0314704 30.9481646,12.0314704 L30.7768597,12.0314704 L30.7768597,5.96852955 L30.9481646,5.96852955 L30.9481646,5.96852955 Z M26.6539638,12.0314704 L30.3192534,10.355899 L30.3192534,10.9000616 L27.8441521,12.0314704 L26.6539638,12.0314704 L26.6539638,12.0314704 Z M28.1519153,5.96852955 L30.0477784,6.83521309 L29.4528673,7.10716855 L26.9620473,5.96852955 L28.1519153,5.96852955 L28.1519153,5.96852955 Z M28.902527,7.35873764 L28.3073413,7.63083037 L25.9722447,6.5633034 L25.9722447,6.01920946 L28.902527,7.35873764 L28.902527,7.35873764 Z M27.1619526,8.15442355 L25.9722447,7.61053553 L25.9722447,7.06646446 L27.7570239,7.88239946 L27.1619526,8.15442355 L27.1619526,8.15442355 Z M25.9722447,8.11369659 L26.6116352,8.40601552 L25.9722447,8.69831158 L25.9722447,8.11369659 L25.9722447,8.11369659 Z M25.9722447,9.20144975 L30.3192534,7.21424843 L30.3192534,7.7583195 L25.9722447,9.74552082 L25.9722447,9.20144975 L25.9722447,9.20144975 Z M25.9722447,10.2486819 L30.3192534,8.26148056 L30.3192534,8.80555162 L25.9722447,10.7927529 L25.9722447,10.2486819 L25.9722447,10.2486819 Z M25.9722447,11.2958911 L30.3192534,9.3086898 L30.3192534,9.85276087 L25.9722447,11.8399622 L25.9722447,11.2958911 L25.9722447,11.2958911 Z M29.252573,5.96852955 L30.3192534,5.96852955 L30.3192534,6.45615488 L29.252573,5.96852955 L29.252573,5.96852955 Z M31.5375845,4.45849725 L31.5375845,4.85885704 L24.7539136,4.85885704 L24.7539136,4.45849725 L31.5375845,4.45849725 L31.5375845,4.45849725 Z M30.8279743,5.31646339 C30.7945004,5.37730215 30.7679135,5.44244242 30.7494948,5.51092321 L25.5420033,5.51092321 C25.5235617,5.4424653 25.4969977,5.37730215 25.4635238,5.31646339 L30.8279743,5.31646339 L30.8279743,5.31646339 Z M24.7539136,13.5415028 L24.7539136,13.141143 L31.5375845,13.141143 L31.5375845,13.5415028 L24.7539136,13.5415028 L24.7539136,13.5415028 Z M25.4635238,12.6835366 C25.4969977,12.6226978 25.5235846,12.5575576 25.5420033,12.4890768 L30.7494948,12.4890768 C30.7679364,12.5575347 30.7945004,12.6226978 30.8279743,12.6835366 L25.4635238,12.6835366 L25.4635238,12.6835366 Z M28.9448556,12.0314704 L30.3192534,11.4032227 L30.3192534,12.0314704 L28.9448556,12.0314704 L28.9448556,12.0314704 Z" id="Shape"></path>
                    </g>
                </g>
            </g>
        </g>
    </g>
</svg>