<?xml version="1.0" encoding="UTF-8" standalone="no"?>
<svg width="48px" height="48px" viewBox="0 0 48 48" version="1.1" xmlns="http://www.w3.org/2000/svg" xmlns:xlink="http://www.w3.org/1999/xlink" xmlns:sketch="http://www.bohemiancoding.com/sketch/ns">
    <!-- Generator: Sketch 3.3.2 (12043) - http://www.bohemiancoding.com/sketch -->
    <title>instagram</title>
    <desc>Created with Sketch.</desc>
    <defs></defs>
    <g id="Page-1" stroke="none" stroke-width="1" fill="none" fill-rule="evenodd" sketch:type="MSPage">
        <g id="iPhone-5/5S/5C-Copy-2" sketch:type="MSArtboardGroup" transform="translate(-226.000000, -1467.000000)" fill-opacity="0.75" fill="#E7E7E7">
            <g id="Contacts" sketch:type="MSLayerGroup" transform="translate(0.000000, 1439.000000)">
                <g id="instagram" transform="translate(226.000000, 28.000000)" sketch:type="MSShapeGroup">
                    <g id="XMLID_13_">
                        <path d="M33.6415652,0 L14.2744348,0 C6.40347826,0 0,6.40347826 0,14.2744348 L0,33.6415652 C0,41.5125217 6.40347826,47.916 14.2744348,47.916 L33.6415652,47.916 C41.5125217,47.916 47.916,41.5125217 47.916,33.6415652 L47.916,14.2744348 C47.915913,6.40347826 41.5124348,0 33.6415652,0 L33.6415652,0 Z M43.0956522,33.6415652 C43.0956522,38.8628696 38.8628696,43.0956522 33.6415652,43.0956522 L14.2744348,43.0956522 C9.05313043,43.0956522 4.82034783,38.8628696 4.82034783,33.6415652 L4.82034783,14.2744348 C4.82034783,9.05304348 9.05313043,4.82034783 14.2744348,4.82034783 L33.6415652,4.82034783 C38.8628696,4.82034783 43.0956522,9.05304348 43.0956522,14.2744348 L43.0956522,33.6415652 L43.0956522,33.6415652 Z" id="XMLID_17_"></path>
                        <path d="M23.958,11.5652174 C17.1246087,11.5652174 11.5652174,17.1246087 11.5652174,23.957913 C11.5652174,30.7912174 17.1246087,36.3506957 23.958,36.3506957 C30.7913913,36.3506957 36.3507826,30.7913043 36.3507826,23.957913 C36.3507826,17.1245217 30.7913913,11.5652174 23.958,11.5652174 L23.958,11.5652174 Z M23.958,31.5304348 C19.7758261,31.5304348 16.3855652,28.1401739 16.3855652,23.958 C16.3855652,19.7758261 19.775913,16.3855652 23.958,16.3855652 C28.1401739,16.3855652 31.5304348,19.7758261 31.5304348,23.958 C31.5304348,28.140087 28.140087,31.5304348 23.958,31.5304348 L23.958,31.5304348 Z" id="XMLID_81_"></path>
                        <circle id="XMLID_83_" cx="36.3744348" cy="11.6584348" r="2.96947826"></circle>
                    </g>
                </g>
            </g>
        </g>
    </g>
</svg>