<?xml version="1.0" encoding="UTF-8" standalone="no"?>
<svg width="48px" height="48px" viewBox="0 0 48 48" version="1.1" xmlns="http://www.w3.org/2000/svg" xmlns:xlink="http://www.w3.org/1999/xlink" xmlns:sketch="http://www.bohemiancoding.com/sketch/ns">
    <!-- Generator: Sketch 3.3.2 (12043) - http://www.bohemiancoding.com/sketch -->
    <title>vk-social-logotype</title>
    <desc>Created with Sketch.</desc>
    <defs></defs>
    <g id="Page-1" stroke="none" stroke-width="1" fill="none" fill-rule="evenodd" sketch:type="MSPage">
        <g id="iPhone-5/5S/5C-Copy-2" sketch:type="MSArtboardGroup" transform="translate(-226.000000, -1544.000000)" fill-opacity="0.75" fill="#E7E7E7">
            <g id="Contacts" sketch:type="MSLayerGroup" transform="translate(0.000000, 1439.000000)">
                <g id="vk-social-logotype" transform="translate(226.000000, 105.000000)" sketch:type="MSShapeGroup">
                    <path d="M23.9387755,0 C10.7182041,0 0,10.7177143 0,23.9387755 C0,37.1598367 10.7182041,47.877551 23.9387755,47.877551 C37.1593469,47.877551 47.877551,37.1598367 47.877551,23.9387755 C47.877551,10.7177143 37.1593469,0 23.9387755,0 L23.9387755,0 Z M36.0817959,26.5278367 C37.197551,27.6176327 38.3779592,28.6432653 39.3795918,29.8457143 C39.8233469,30.3776327 40.2416327,30.9276735 40.56,31.5462857 C41.0145306,32.4284082 40.6040816,33.3957551 39.8145306,33.4481633 L34.9102041,33.4471837 C33.6435918,33.552 32.6355918,33.0411429 31.7857959,32.1751837 C31.1074286,31.4850612 30.4780408,30.7479184 29.8246531,30.0342857 C29.5577143,29.7413878 29.2765714,29.4656327 28.941551,29.2486531 C28.2729796,28.8137143 27.6920816,28.9469388 27.3090612,29.6453878 C26.9186939,30.3560816 26.829551,31.1436735 26.7923265,31.9346939 C26.7389388,33.091102 26.3902041,33.3933061 25.2298776,33.4476735 C22.7505306,33.5637551 20.3980408,33.1875918 18.2115918,31.9376327 C16.2827755,30.835102 14.7898776,29.2790204 13.4889796,27.5172245 C10.9557551,24.0827755 9.01567347,20.3133061 7.2724898,16.4355918 C6.88016327,15.5622857 7.16718367,15.0950204 8.13061224,15.076898 C9.73126531,15.0460408 11.3319184,15.0499592 12.9325714,15.0754286 C13.584,15.0857143 14.0150204,15.458449 14.2653061,16.0731429 C15.1302857,18.2013061 16.1906939,20.2261224 17.5195102,22.104 C17.8736327,22.6040816 18.235102,23.1026939 18.7498776,23.4558367 C19.3180408,23.8457143 19.7510204,23.716898 20.0189388,23.0826122 C20.1903673,22.6795102 20.2643265,22.2484898 20.301551,21.8164898 C20.428898,20.3368163 20.4440816,18.8576327 20.2236735,17.3838367 C20.0865306,16.461551 19.5678367,15.8659592 18.6484898,15.6915918 C18.1802449,15.6029388 18.2488163,15.429551 18.4765714,15.1621224 C18.8718367,14.6997551 19.2421224,14.4137143 19.9822041,14.4137143 L25.5232653,14.4127347 C26.3965714,14.5841633 26.5924898,14.976 26.7110204,15.8556735 L26.7159184,22.0133878 C26.7056327,22.3537959 26.8868571,23.3627755 27.4981224,23.5856327 C27.9879184,23.7472653 28.3111837,23.354449 28.6040816,23.0444082 C29.932898,21.6342857 30.8796735,19.9699592 31.7275102,18.2473469 C32.1017143,17.4876735 32.4244898,16.701551 32.7379592,15.9139592 C32.971102,15.3315918 33.333551,15.0450612 33.9908571,15.0548571 L39.3266939,15.0612245 C39.4839184,15.0612245 39.6435918,15.0626939 39.7993469,15.0896327 C40.6986122,15.2434286 40.9449796,15.6303673 40.6667755,16.5075918 C40.228898,17.8858776 39.3781224,19.0339592 38.546449,20.1849796 C37.6550204,21.4173061 36.7043265,22.6065306 35.8217143,23.8442449 C35.0106122,24.9756735 35.0747755,25.5453061 36.0817959,26.5278367 L36.0817959,26.5278367 Z" id="Shape"></path>
                </g>
            </g>
        </g>
    </g>
</svg>