<?xml version="1.0" encoding="UTF-8" standalone="no"?>
<svg width="60px" height="60px" viewBox="0 0 60 60" version="1.1" xmlns="http://www.w3.org/2000/svg" xmlns:xlink="http://www.w3.org/1999/xlink" xmlns:sketch="http://www.bohemiancoding.com/sketch/ns">
    <!-- Generator: Sketch 3.3.2 (12043) - http://www.bohemiancoding.com/sketch -->
    <title>Group Copy</title>
    <desc>Created with Sketch.</desc>
    <defs></defs>
    <g id="Page-1" stroke="none" stroke-width="1" fill="none" fill-rule="evenodd" sketch:type="MSPage">
        <g id="iPad-Landscape-Copy-9" sketch:type="MSArtboardGroup" transform="translate(-21.000000, -1933.000000)" fill-opacity="0.65" fill="#FFFFFF">
            <g id="block_3" sketch:type="MSLayerGroup" transform="translate(21.000000, 1580.000000)">
                <g id="Group-Copy" transform="translate(30.000000, 383.000000) scale(-1, -1) translate(-30.000000, -383.000000) translate(0.000000, 353.000000)" sketch:type="MSShapeGroup">
                    <path d="M30,59.7948718 C46.4102564,59.7948718 59.7948718,46.4615385 59.7948718,30 C59.7948718,13.5384615 46.4102564,0.205128205 30,0.205128205 C13.5897436,0.205128205 0.205128205,13.5897436 0.205128205,30 C0.205128205,46.4102564 13.5897436,59.7948718 30,59.7948718 L30,59.7948718 Z M30,4.41025641 C44.1025641,4.41025641 55.5897436,15.8974359 55.5897436,30 C55.5897436,44.1025641 44.1025641,55.5897436 30,55.5897436 C15.8974359,55.5897436 4.41025641,44.1025641 4.41025641,30 C4.41025641,15.8974359 15.8974359,4.41025641 30,4.41025641 L30,4.41025641 Z" id="Shape"></path>
                    <path d="M23.1282051,44.8717949 C23.5384615,45.2820513 24.0512821,45.4871795 24.6153846,45.4871795 C25.1282051,45.4871795 25.6923077,45.2820513 26.1025641,44.8717949 L39.6410256,31.3333333 C40.0512821,30.9230769 40.2564103,30.4102564 40.2564103,29.8461538 C40.2564103,29.2820513 40.0512821,28.7692308 39.6410256,28.3589744 L26.1025641,14.8205128 C25.2820513,14 23.9487179,14 23.1282051,14.8205128 C22.3076923,15.6410256 22.3076923,16.974359 23.1282051,17.7948718 L35.1794872,29.8461538 L23.1282051,41.8974359 C22.3076923,42.7179487 22.3076923,44.0512821 23.1282051,44.8717949 L23.1282051,44.8717949 Z" id="Shape"></path>
                </g>
            </g>
        </g>
    </g>
</svg>